<?xml version="1.0" encoding="utf-8"?>
<!-- Generator: Adobe Illustrator 26.1.0, SVG Export Plug-In . SVG Version: 6.00 Build 0)  -->
<svg version="1.1" xmlns="http://www.w3.org/2000/svg" xmlns:xlink="http://www.w3.org/1999/xlink" x="0px" y="0px"
	 viewBox="0 0 1080 1080" style="enable-background:new 0 0 1080 1080;" xml:space="preserve">
<g id="Layer_1">
	<polygon points="752.72,847.54 759.93,847.54 667.98,632.98 664.37,641.99 	"/>
	<polygon points="759.93,259.75 767.14,259.75 664.37,486.93 660.77,477.92 	"/>
	<polygon points="738.3,847.54 745.51,847.54 660.77,651.01 657.16,661.82 	"/>
	<polygon points="745.51,259.75 752.36,259.75 649.58,486.93 647.78,476.11 	"/>
	<polyline points="492.58,277.07 612.3,554.97 482.52,847.54 495.93,847.54 625.71,554.97 497.48,259.75 484.07,259.75 	"/>
</g>
<g id="Layer_2">
	<polygon points="505.71,259.75 574.22,259.75 670.64,490.54 774.36,259.75 841.07,259.75 704.9,557.25 832.05,847.54 
		767.14,847.54 673.35,621.77 581.43,847.54 507.51,847.54 635.04,555.14 	"/>
	<rect x="916.79" y="259.75" width="63.11" height="587.78"/>
	<g>
		<path d="M121.7,177l26.62-26.81h9.38l-29.25,29.16l30.19,33.38h-9.56l-25.59-28.69l-1.78,1.78v26.91h-6.94v-62.53h6.94V177z"/>
		<path d="M181.05,181.5c0-18.66,14.53-32.34,32.53-32.34s32.53,13.69,32.53,32.34c0,18.56-14.44,32.34-32.53,32.34
			S181.05,200.06,181.05,181.5z M188.18,181.5c0,14.34,11.34,25.78,25.41,25.78s25.41-11.44,25.41-25.78s-11.34-25.78-25.41-25.78
			S188.18,167.16,188.18,181.5z"/>
		<path d="M277.06,212.72l10.41-66l24,52.78l24.47-52.88l9.75,66.09h-7.12l-5.91-43.5l-21.28,46.12l-21-46.12l-6.19,43.5H277.06z"/>
		<path d="M426.41,150.19v62.53h-6.94v-55.97h-32.06v55.97h-6.94v-62.53H426.41z"/>
		<path d="M459.51,181.5c0-18.66,14.53-32.34,32.53-32.34s32.53,13.69,32.53,32.34c0,18.56-14.44,32.34-32.53,32.34
			S459.51,200.06,459.51,181.5z M466.63,181.5c0,14.34,11.34,25.78,25.41,25.78s25.41-11.44,25.41-25.78s-11.34-25.78-25.41-25.78
			S466.63,167.16,466.63,181.5z"/>
		<path d="M556.08,158.25c5.06-7.5,11.81-9.09,17.91-9.09c3.19,0,8.91,0.47,13.22,4.41c2.72,2.44,4.88,6.38,4.88,11.53
			c0,6.38-3.75,10.97-8.62,13.22c8.34,1.88,12.56,8.53,12.56,16.12c0,7.78-3.94,12.56-7.78,15.28c-3.94,2.72-9.19,4.12-14.25,4.12
			c-12.38,0-19.41-7.69-22.59-15l6.75-3c2.53,7.03,8.62,11.44,16.12,11.44c3.38,0,6.94-0.84,9.56-2.62
			c4.03-2.81,5.06-6.66,5.06-10.03c0-11.44-10.59-12.28-16.69-12.28h-5.62v-6.56h5.62c8.72,0,12.75-4.88,12.75-10.59
			c0-2.72-1.03-5.06-2.53-6.56c-2.44-2.53-6-2.91-8.44-2.91c-4.5,0-8.81,1.31-12.56,6.75L556.08,158.25z"/>
		<path d="M672.61,165l-43.5,50.53v-65.34h6.94v47.91l43.5-50.53v65.16h-6.94V165z"/>
		<path d="M731.4,156.75v55.97h-6.94v-55.97h-15.19v-6.56h37.31v6.56H731.4z"/>
		<path d="M769.65,181.5c0-18.66,14.53-32.34,32.53-32.34s32.53,13.69,32.53,32.34c0,18.56-14.44,32.34-32.53,32.34
			S769.65,200.06,769.65,181.5z M776.78,181.5c0,14.34,11.34,25.78,25.41,25.78s25.41-11.44,25.41-25.78s-11.34-25.78-25.41-25.78
			S776.78,167.16,776.78,181.5z"/>
		<path d="M879.16,150.19c6.28,0,11.53,0.75,15.75,4.41c4.59,3.94,5.72,9.47,5.72,13.41c0,8.81-5.53,17.53-19.78,17.53h-6.09v27.19
			h-6.94v-62.53H879.16z M874.75,178.97h5.72c8.25,0,13.22-4.12,13.22-11.34c0-9.94-9.28-10.88-13.78-10.88h-5.16V178.97z"/>
		<path d="M930.91,150.19h6.94v25.97h8.44c7.69,0,21.56,1.59,21.56,17.62c0,11.91-7.97,18.94-20.25,18.94h-16.69V150.19z
			 M937.85,206.16h8.06c2.81,0,7.97,0,11.53-3.47c1.69-1.59,3.28-4.41,3.28-8.91c0-3-0.75-7.12-5.06-9.47
			c-2.91-1.59-6.66-1.59-10.5-1.59h-7.31V206.16z M981.35,150.19v62.53h-6.94v-62.53H981.35z"/>
	</g>
	<rect x="904.33" y="259.64" width="7.37" height="587.71"/>
	<rect x="884.49" y="259.75" width="12.47" height="587.78"/>
	<polygon points="383.88,847.19 391.09,847.19 299.13,632.63 295.53,641.65 	"/>
	<polygon points="391.09,259.41 398.3,259.41 295.53,486.59 291.92,477.57 	"/>
	<polygon points="369.45,847.19 376.66,847.19 291.92,650.66 288.32,661.48 	"/>
	<polygon points="376.66,259.41 383.51,259.41 280.74,486.59 278.94,475.77 	"/>
	<polyline points="123.73,276.72 243.46,554.62 113.68,847.19 127.09,847.19 256.87,554.62 130.44,261.21 117.03,261.21 	"/>
	<polygon points="136.86,259.41 205.38,259.41 301.8,490.19 405.51,259.41 472.22,259.41 336.06,556.9 463.21,847.19 398.3,847.19 
		304.5,621.43 212.59,847.19 138.67,847.19 266.2,554.79 	"/>
	<g>
		<path d="M763.88,882.31c2.34,0,6.17,0.11,9.26,2.55c1.6,1.28,3.83,3.83,3.83,8.3c0,3.83-1.6,7.02-4.79,9.04
			c0.75,0.11,3.19,0.64,5.32,2.45c1.92,1.7,3.72,4.36,3.72,8.72c0,4.89-2.23,7.77-4.36,9.36c-3.4,2.66-7.87,2.98-10.64,2.98h-16.49
			v-43.41H763.88z M763.88,901.25c1.6,0,4.04-0.11,6.17-1.81c1.17-0.96,2.66-2.77,2.66-5.74c0-2.87-1.49-4.68-2.66-5.64
			c-2.02-1.6-4.79-1.7-6.17-1.7h-9.89v14.89H763.88z M766.22,921.67c1.6,0,5-0.11,7.45-1.92c1.38-1.06,3.09-2.98,3.09-6.49
			c0-2.77-1.06-4.68-2.87-6.06c-2.23-1.7-5.21-1.92-7.66-1.92h-12.23v16.38H766.22z"/>
		<path d="M814.62,904.54c0,11.06,8.09,18.3,17.23,18.3c7.02,0,12.34-4.15,15.11-9.89l3.62,2.13c-2.55,4.89-8.3,11.81-19.04,11.81
			c-13.51,0-21.38-10-21.38-22.66c0-15.11,10.43-22.87,21.06-22.87c11.7,0,20.53,9.36,20.53,23.19H814.62z M847.28,900.5
			c-1.06-8.62-7.45-15.11-16.06-15.11c-8.83,0-15.11,6.7-16.28,15.11H847.28z"/>
		<path d="M887.7,882.31v20.64l21.92-20.64h5.75l-22.13,20.64l23.83,22.77h-6.17l-20.85-19.89l-2.34,2.23v17.66h-4.25v-43.41H887.7z
			"/>
		<path d="M977.81,882.31h4.25v43.41h-4.25v-7.77c-4.36,6.7-11.28,8.94-16.92,8.94c-11.38,0-21.17-8.62-21.17-22.87
			c0-13.4,8.51-22.66,21.17-22.66c6.81,0,12.77,2.66,16.92,8.51V882.31z M944.19,903.69c0,9.79,6.06,19.15,17.02,19.15
			c10.85,0,16.81-9.15,16.81-19.15c0-12.87-9.47-18.3-16.92-18.3C952.49,885.4,944.19,891.89,944.19,903.69z"/>
	</g>
</g>
</svg>
