<svg xmlns="http://www.w3.org/2000/svg" viewBox="114 146 870 68" fill="none">
  <path d="M121.7 177l26.62-26.81h9.38l-29.25 29.16 30.19 33.38h-9.56l-25.59-28.69-1.78 1.78v26.91h-6.94v-62.53h6.94V177z" fill="#000"/>
  <path d="M181.05 181.5c0-18.66 14.53-32.34 32.53-32.34s32.53 13.69 32.53 32.34c0 18.56-14.44 32.34-32.53 32.34s-32.53-13.78-32.53-32.34zm7.13 0c0 14.34 11.34 25.78 25.41 25.78S239 195.84 239 181.5s-11.34-25.78-25.41-25.78-25.41 11.44-25.41 25.78z" fill="#000"/>
  <path d="M277.06 212.72l10.41-66 24 52.78 24.47-52.88 9.75 66.09h-7.12l-5.91-43.5-21.28 46.12-21-46.12-6.19 43.5h-7.13z" fill="#000"/>
  <path d="M426.41 150.19v62.53h-6.94v-55.97h-32.06v55.97h-6.94v-62.53h45.94z" fill="#000"/>
  <path d="M459.51 181.5c0-18.66 14.53-32.34 32.53-32.34s32.53 13.69 32.53 32.34c0 18.56-14.44 32.34-32.53 32.34s-32.53-13.78-32.53-32.34zm7.12 0c0 14.34 11.34 25.78 25.41 25.78s25.41-11.44 25.41-25.78-11.34-25.78-25.41-25.78-25.41 11.44-25.41 25.78z" fill="#000"/>
  <path d="M556.08 158.25c5.06-7.5 11.81-9.09 17.91-9.09 3.19 0 8.91.47 13.22 4.41 2.72 2.44 4.88 6.38 4.88 11.53 0 6.38-3.75 10.97-8.62 13.22 8.34 1.88 12.56 8.53 12.56 16.12 0 7.78-3.94 12.56-7.78 15.28-3.94 2.72-9.19 4.12-14.25 4.12-12.38 0-19.41-7.69-22.59-15l6.75-3c2.53 7.03 8.62 11.44 16.12 11.44 3.38 0 6.94-.84 9.56-2.62 4.03-2.81 5.06-6.66 5.06-10.03 0-11.44-10.59-12.28-16.69-12.28h-5.62v-6.56h5.62c8.72 0 12.75-4.88 12.75-10.59 0-2.72-1.03-5.06-2.53-6.56-2.44-2.53-6-2.91-8.44-2.91-4.5 0-8.81 1.31-12.56 6.75l-5.44-4.78z" fill="#000"/>
  <path d="M672.61 165l-43.5 50.53v-65.34h6.94v47.91l43.5-50.53v65.16h-6.94V165z" fill="#000"/>
  <path d="M731.4 156.75v55.97h-6.94v-55.97h-15.19v-6.56h37.31v6.56H731.4z" fill="#000"/>
  <path d="M769.65 181.5c0-18.66 14.53-32.34 32.53-32.34s32.53 13.69 32.53 32.34c0 18.56-14.44 32.34-32.53 32.34s-32.53-13.78-32.53-32.34zm7.13 0c0 14.34 11.34 25.78 25.41 25.78s25.41-11.44 25.41-25.78-11.34-25.78-25.41-25.78-25.41 11.44-25.41 25.78z" fill="#000"/>
  <path d="M879.16 150.19c6.28 0 11.53.75 15.75 4.41 4.59 3.94 5.72 9.47 5.72 13.41 0 8.81-5.53 17.53-19.78 17.53h-6.09v27.19h-6.94v-62.53h11.34zm-4.4 28.78h5.72c8.25 0 13.22-4.12 13.22-11.34 0-9.94-9.28-10.88-13.78-10.88h-5.16v22.22z" fill="#000"/>
  <path d="M930.91 150.19h6.94v25.97h8.44c7.69 0 21.56 1.59 21.56 17.62 0 11.91-7.97 18.94-20.25 18.94h-16.69v-62.53zm6.94 55.97h8.06c2.81 0 7.97 0 11.53-3.47 1.69-1.59 3.28-4.41 3.28-8.91 0-3-.75-7.12-5.06-9.47-2.91-1.59-6.66-1.59-10.5-1.59h-7.31v23.44zm43.5-55.97v62.53h-6.94v-62.53h6.94z" fill="#000"/>
</svg>
