<svg xmlns="http://www.w3.org/2000/svg" viewBox="749 878 234 50" fill="none">
  <path d="M763.88 882.31c2.34 0 6.17.11 9.26 2.55 1.6 1.28 3.83 3.83 3.83 8.3 0 3.83-1.6 7.02-4.79 9.04.75.11 3.19.64 5.32 2.45 1.92 1.7 3.72 4.36 3.72 8.72 0 4.89-2.23 7.77-4.36 9.36-3.4 2.66-7.87 2.98-10.64 2.98h-16.49v-43.41h14.15zm0 18.94c1.6 0 4.04-.11 6.17-1.81 1.17-.96 2.66-2.77 2.66-5.74 0-2.87-1.49-4.68-2.66-5.64-2.02-1.6-4.79-1.7-6.17-1.7h-9.89v14.89h9.89zm2.34 20.42c1.6 0 5-.11 7.45-1.92 1.38-1.06 3.09-2.98 3.09-6.49 0-2.77-1.06-4.68-2.87-6.06-2.23-1.7-5.21-1.92-7.66-1.92h-12.23v16.38h12.23z" fill="#000"/>
  <path d="M814.62 904.54c0 11.06 8.09 18.3 17.23 18.3 7.02 0 12.34-4.15 15.11-9.89l3.62 2.13c-2.55 4.89-8.3 11.81-19.04 11.81-13.51 0-21.38-10-21.38-22.66 0-15.11 10.43-22.87 21.06-22.87 11.7 0 20.53 9.36 20.53 23.19h-37.13zm32.66-4.04c-1.06-8.62-7.45-15.11-16.06-15.11-8.83 0-15.11 6.7-16.28 15.11h32.34z" fill="#000"/>
  <path d="M887.7 882.31v20.64l21.92-20.64h5.75l-22.13 20.64 23.83 22.77h-6.17l-20.85-19.89-2.34 2.23v17.66h-4.25v-43.41h4.25z" fill="#000"/>
  <path d="M977.81 882.31h4.25v43.41h-4.25v-7.77c-4.36 6.7-11.28 8.94-16.92 8.94-11.38 0-21.17-8.62-21.17-22.87 0-13.4 8.51-22.66 21.17-22.66 6.81 0 12.77 2.66 16.92 8.51v-7.56zm-33.62 21.38c0 9.79 6.06 19.15 17.02 19.15 10.85 0 16.81-9.15 16.81-19.15 0-12.87-9.47-18.3-16.92-18.3-8.61.01-16.91 6.5-16.91 18.3z" fill="#000"/>
</svg>
