<svg xmlns="http://www.w3.org/2000/svg" viewBox="0 0 74.5 46.4" aria-hidden="true">
  <g fill="#111111">
    <path d="M8.5 25.3V13.1c.2-1.2-.6-2.3-1.8-2.4h-4.3C1.2 10.5.1 11.4 0 12.5v12.8c-.2 1.2.6 2.3 1.8 2.4h4.3c1.2.2 2.3-.7 2.4-1.8zM6 24.8c0 .2-.2.4-.4.4H2.9a.4.4 0 0 1-.4-.4V13.6c0-.2.2-.4.4-.4h2.6c.2 0 .4.2.4.4zM45.9 10.6h-3.7c-1.2-.2-2.3.7-2.4 1.8v12.8c-.2 1.2.6 2.3 1.8 2.4h4.3c1.2.2 2.3-.7 2.4-1.8v-3.4c0-.2-.2-.3-.4-.3l-1.9.6c-.2 0-.3.2-.3.4v1.5c0 .2-.2.4-.4.4h-2.6c-.2 0-.4-.2-.4-.4v-2.2l4.6-1.8c.8-.3 1.4-1.1 1.4-2v-5.7c.2-1.2-.6-2.3-1.8-2.4zM45.8 18.1c0 .2-.1.3-.3.4l-3.1 1.2v-6.2c0-.2.2-.4.4-.4h2.7c.2 0 .4.2.4.4zM53 8.8l5.5-2.2c.2-.1.3-.2.3-.4V4.1c0-.2-.2-.3-.4-.3L53 6c-.2.1-.3.2-.3.4v2.1c0 .2.1.3.3.3zM59.6 10.6h-1.8c-.2 0-.4.2-.4.4v12.2l-3.3 1.3c-.2.1-.4 0-.4-.3V11c0-.2-.2-.4-.4-.4h-1.8c-.2 0-.4.2-.4.4v15c0 .9.7 1.7 1.7 1.7.2 0 .5-.1.7-.1l3.8-1.5v1.2c0 .2.2.4.4.4h1.8c.2 0 .4-.2.4-.4V11c0-.2-.2-.4-.4-.4zM34.5 10.6h-3.3v-9c0-.9-.8-1.6-1.7-1.6l-.5.1-16.4 5.4c-.7.2-1.1.8-1.1 1.5v29.8l-1.5.4c-1.1.3-2.2.8-3.2 1.5l-.3.2c-.4.4-.7.9-.6 1.5v.6c-.1.7.2 1 .6 1h.3c1.1.1 2.1-.1 3.2-.4l1.5-.6.1-.1 1.5-.7.3-.2c.4-.3.7-.8.7-1.3V27.7h3.5c1.2.2 2.3-.6 2.4-1.8V13.1c.2-1.2-.6-2.3-1.8-2.4H14V8.1c0-.2.1-.4.3-.4l14-4.6c.1 0 .3 0 .3.2v7.3h-3.4c-1.2-.2-2.3.7-2.4 1.8v12.8c-.2 1.2.6 2.3 1.8 2.4h4v3.9l-1.5.4c-1.1.3-2.2.8-3.2 1.5l-.3.2c-.4.3-.7.9-.6 1.5v.6c-.1.7.2 1 .6 1h.3c1.1.1 2.1 0 3.1-.3l1.5-.6.1-.1 1.6-.9.3-.2c.4-.3.6-.8.6-1.3v-5.7h3.3c1.2.2 2.3-.7 2.4-1.8V13.1c.2-1.2-.6-2.3-1.8-2.4zM17 13.2c.2 0 .4.2.4.4v11.2c0 .2-.2.4-.4.4h-3v-12zm8.8 12c-.2 0-.4-.2-.4-.4V13.6c0-.2.2-.4.4-.4h2.8v12zm8.5-.4c0 .2-.2.4-.4.4h-2.8v-12H34c.2 0 .4.2.4.4z"/>
    <path d="M39.8 39.5c0-.8-.4-1.2-.8-1.5.4-.2.7-.7.7-1.3 0-1-.8-1.8-1.9-1.8-1.1 0-1.9.7-1.9 1.8H37c0-.5.4-.8.8-.8s.8.3.8.8-.3.8-.8.8h-.2v1h.2c.6 0 .9.4.9.9 0 .6-.4.9-.9.9-.4 0-.8-.3-.9-.8h-1.1c0 1.3 1 1.9 2 1.9 1.1 0 2-.7 2-2zM44.6 39.2c0-.6 0-1.2-.6-1.8-.2-.2-.7-.4-1.2-.4-.4 0-.8.1-1 .4V36H44v-1h-3.6v3.5h1c0-.3.4-.5.8-.5.6 0 .8.4.8 1.1 0 .4 0 .8-.2 1-.2.1-.4.2-.6.2-.4 0-.7-.3-.8-.8h-1.1c0 .4.2.9.5 1.3.3.3.8.5 1.4.5s1.1-.2 1.4-.5c.7-.4.8-.9.8-1.6zM50.8 41.3v-4.6h-3.4v1.9c0 1.7-.4 1.7-.8 1.7h-.1v1h.5c1 0 1.5-.5 1.5-2.4v-1.1h1.2v3.5h1zm5-2v-.5c0-1.3-.7-2.2-2-2.2s-2 1-2 2.4c0 1.9 1 2.4 2.1 2.4.9 0 1.4-.3 1.8-.7l-.7-.7c-.3.2-.6.4-1.1.4-.6 0-1-.4-1-1zm-1.1-.8H53c0-.2 0-.3.2-.5.1-.2.4-.5.8-.5s.6.3.7.5c.2.2.2.3.2.5zM60.2 37.8v-1h-3.8v1h1.3v3.5h1.2v-3.5z"/>
  </g>
</svg>
