<?xml version="1.0" encoding="utf-8"?> <svg xmlns="http://www.w3.org/2000/svg" xmlns:xlink="http://www.w3.org/1999/xlink" version="1.1" id="Слой_1" x="0px" y="0px" width="313px" height="139px" viewBox="0 0 313 139" xml:space="preserve"> <g> <g> <path fill="#231F20" d="M77.15,70.287V26.962c0-19.879-16.318-15.547-16.318-17.588V9.247h33.011v0.127 c0,2.041-16.072-2.036-16.072,17.202v70.723h-0.241L16.938,18.295v59.509c0,19.245,16.068,15.165,16.068,17.199v0.134H0v-0.134 c0-2.034,16.316,2.296,16.316-17.581V21.099c0-13.123-14.093-9.813-14.093-11.593V9.249h28.064 C45.868,29.636,61.446,50.021,77.15,70.287z"></path> <path fill="#231F20" d="M118.319,85.448c0,10.326,9.768,8.03,9.768,9.438v0.251H93.832v-0.251c0-1.407,10.511,1.266,10.511-10.066 V50.021c0-10.952-10.383-7.513-10.383-9.169v-0.255l23.982-2.674l0.375,0.248v47.276H118.319z M119.183,16.252 c0,4.845-3.708,8.795-8.411,8.795c-4.693,0-8.283-3.95-8.283-8.795c0-4.458,3.59-8.405,8.283-8.405 C115.475,7.847,119.183,11.794,119.183,16.252z"></path> <path fill="#231F20" d="M141.431,84.814l-0.127-70.727c0-11.216-9.394-7.903-9.394-9.428V4.404l23.118-2.55l0.249,0.258v63.207 h5.318l12.607-13.258c2.473-2.554,3.344-4.587,3.344-6.118c0-5.99-10.391-4.713-10.391-6.116v-0.252h30.293v0.252 c0,0.767-2.23,0.383-5.814,1.403c-5.313,1.401-10.875,4.838-17.307,11.591l-4.082,4.336l15.701,25.871 c8.162,13.631,16.32,10.188,15.953,12.104h-23.492l-18.051-29.178h-4.084v19.493c0,10.326,10.264,8.026,10.264,9.438v0.247h-34.49 v-0.247C131.047,93.479,141.431,96.151,141.431,84.814z"></path> <path fill="#231F20" d="M225.83,37.789c19.537,0,30.051,13.256,30.051,29.057c0,15.927-11.379,29.817-30.051,29.817 c-19.279,0-29.676-13.505-29.676-29.56C196.154,50.918,207.404,37.789,225.83,37.789z M226.078,96.026 c12.492,0,14.967-12.232,14.967-28.547c0-17.711-3.1-29.05-15.092-29.05c-11.746,0-14.959,13.377-14.959,28.547 C210.994,84.434,213.098,96.026,226.078,96.026z"></path> </g> </g> <path fill="#EF6B00" d="M270.893,57.323c21.883,0,39.633,18.281,39.633,40.837c0,22.559-17.75,40.84-39.633,40.84 s-39.625-18.281-39.625-40.84C231.268,75.604,249.01,57.323,270.893,57.323z"></path> <g> <g> <path fill="#FFFFFF" d="M247.818,95.175l-0.811-3.03h-4.137l-0.801,3.03h-1.594l3.771-13.356h1.398l3.775,13.356H247.818z M245.697,87.249l-0.719-2.96H244.9l-0.729,2.943l-0.955,3.477h3.43L245.697,87.249z"></path> <path fill="#FFFFFF" d="M256.783,95.175l-2.162-5.871h-2.176v5.871h-1.551V81.818h4.061c1.059,0,1.891,0.319,2.502,0.971 c0.602,0.646,0.91,1.559,0.91,2.753c0,0.839-0.184,1.568-0.549,2.175c-0.363,0.608-0.932,1.065-1.688,1.358l2.352,6.102h-1.699 V95.175z M256.805,85.525c0-0.746-0.174-1.308-0.514-1.696c-0.342-0.386-0.873-0.578-1.611-0.578h-2.234v4.646h2.273 c0.699,0,1.223-0.214,1.568-0.636C256.627,86.847,256.805,86.26,256.805,85.525z"></path> <path fill="#FFFFFF" d="M263.83,83.251v11.924h-1.545V83.251h-2.957v-1.437h7.469v1.437H263.83z"></path> <path fill="#FFFFFF" d="M245.027,110.367c0.336,0,0.643-0.059,0.922-0.183c0.26-0.128,0.496-0.289,0.686-0.492 c0.201-0.195,0.352-0.446,0.463-0.728c0.107-0.283,0.164-0.585,0.164-0.901v-2.118h-2.121v-1.434h3.686v3.44 c0,0.591-0.094,1.126-0.285,1.612c-0.193,0.482-0.457,0.887-0.789,1.218c-0.334,0.334-0.736,0.598-1.211,0.782 c-0.457,0.185-0.965,0.281-1.514,0.281c-0.592,0-1.127-0.104-1.6-0.298c-0.471-0.205-0.869-0.476-1.189-0.828 c-0.326-0.349-0.57-0.771-0.75-1.271c-0.176-0.493-0.262-1.025-0.262-1.614v-5.613c0-0.558,0.082-1.084,0.254-1.57 c0.164-0.486,0.41-0.903,0.744-1.263c0.326-0.352,0.732-0.624,1.203-0.834c0.473-0.201,1.008-0.307,1.6-0.307 c0.879,0,1.643,0.223,2.281,0.671c0.645,0.451,1.08,1.093,1.318,1.921l-1.498,0.516c-0.117-0.474-0.363-0.854-0.723-1.139 c-0.361-0.291-0.824-0.436-1.379-0.436c-0.363,0-0.686,0.071-0.953,0.201c-0.285,0.137-0.523,0.311-0.705,0.534 c-0.203,0.214-0.346,0.468-0.445,0.766c-0.102,0.292-0.148,0.598-0.148,0.901v5.743c0,0.314,0.047,0.621,0.148,0.923 c0.1,0.289,0.242,0.554,0.445,0.782c0.182,0.216,0.42,0.396,0.705,0.53C244.344,110.296,244.664,110.367,245.027,110.367z"></path> <path fill="#FFFFFF" d="M257.105,111.705l-0.818-3.034h-4.135l-0.803,3.034h-1.582l3.758-13.356h1.404l3.779,13.356H257.105z M254.98,103.777l-0.727-2.958h-0.078l-0.723,2.945l-0.945,3.479h3.428L254.98,103.777z"></path> <path fill="#FFFFFF" d="M260.178,111.705V98.349h1.545v11.805h5.18v1.552H260.178z"></path> <path fill="#FFFFFF" d="M268.449,111.705V98.349h1.547v11.805h5.174v1.552H268.449z"></path> <path fill="#FFFFFF" d="M276.715,111.705V98.349h6.871v1.495h-5.324v4.376h4.563v1.44h-4.563v4.493h5.324v1.552H276.715z"></path> <path fill="#FFFFFF" d="M291.051,111.705l-2.156-5.873h-2.182v5.873h-1.543V98.349h4.057c1.055,0,1.885,0.317,2.492,0.976 c0.617,0.633,0.92,1.558,0.92,2.751c0,0.845-0.184,1.568-0.555,2.176c-0.365,0.612-0.926,1.063-1.686,1.353l2.354,6.112h-1.701 V111.705z M291.07,102.054c0-0.733-0.17-1.302-0.508-1.691c-0.34-0.386-0.879-0.581-1.615-0.581h-2.234v4.65h2.271 c0.699,0,1.221-0.212,1.57-0.638C290.896,103.366,291.07,102.792,291.07,102.054z"></path> <path fill="#FFFFFF" d="M297.402,104.298l0.943-2.579l1.346-3.378h1.621l-3.201,7.802v5.563H296.6v-5.563l-3.227-7.802h1.639 c0.225,0.578,0.457,1.159,0.693,1.736c0.229,0.57,0.467,1.148,0.684,1.728c0.146,0.384,0.303,0.801,0.457,1.239 c0.156,0.452,0.303,0.87,0.439,1.254H297.402L297.402,104.298z"></path> </g> </g> </svg> 