<?xml version="1.0" encoding="utf-8"?>
<!-- Generator: Adobe Illustrator 26.1.0, SVG Export Plug-In . SVG Version: 6.00 Build 0)  -->
<svg version="1.1" xmlns="http://www.w3.org/2000/svg" xmlns:xlink="http://www.w3.org/1999/xlink" x="0px" y="0px"
	 viewBox="0 0 1080 1080" style="enable-background:new 0 0 1080 1080;" xml:space="preserve">
<g id="Layer_1">
	<polygon points="773.18,869.28 781.63,869.28 673.92,617.96 669.7,628.52 	"/>
	<polygon points="781.63,180.81 790.08,180.81 669.7,446.9 665.48,436.34 	"/>
	<polygon points="756.29,869.28 764.73,869.28 665.48,639.08 661.25,651.75 	"/>
	<polygon points="764.73,180.81 772.75,180.81 652.38,446.9 650.27,434.23 	"/>
	<polyline points="468.48,201.09 608.71,526.59 456.7,869.28 472.41,869.28 624.42,526.59 474.22,180.81 458.51,180.81 	"/>
</g>
<g id="Layer_2">
	<polygon points="483.86,180.81 564.11,180.81 677.05,451.13 798.52,180.81 876.66,180.81 717.17,529.27 866.1,869.28 
		790.08,869.28 680.21,604.84 572.55,869.28 485.97,869.28 635.35,526.8 	"/>
	<rect x="965.36" y="180.81" width="73.92" height="688.47"/>
	<rect x="950.76" y="180.68" width="8.63" height="688.38"/>
	<rect x="927.53" y="180.81" width="14.6" height="688.47"/>
	<polygon points="341.16,868.87 349.61,868.87 241.9,617.56 237.68,628.12 	"/>
	<polygon points="349.61,180.41 358.05,180.41 237.68,446.5 233.45,435.94 	"/>
	<polygon points="324.26,868.87 332.71,868.87 233.45,638.68 229.23,651.35 	"/>
	<polygon points="332.71,180.41 340.73,180.41 220.36,446.5 218.24,433.83 	"/>
	<polyline points="36.46,200.69 176.69,526.19 24.68,868.87 40.38,868.87 192.4,526.19 44.31,182.52 28.6,182.52 	"/>
	<polygon points="51.83,180.41 132.08,180.41 245.02,450.72 366.5,180.41 444.64,180.41 285.15,528.86 434.08,868.87 358.05,868.87 
		248.19,604.44 140.53,868.87 53.95,868.87 203.33,526.39 	"/>
</g>
</svg>
